<svg width="61" height="64" viewBox="0 0 61 64" fill="none" xmlns="http://www.w3.org/2000/svg">
<path d="M34.2347 52.9082L38.0584 51.145L45.3143 51.9122L45.8422 42.1834L50.4616 51.036L61 63.7388H45.0054L38.0624 55.3077L36.3266 53.1719L34.2347 52.9082ZM56.0397 29.5649C56.0397 35.6353 54.8309 42.3239 52.4133 46.7455C49.9956 51.1671 46.6791 53.1344 42.4637 55.5326C38.2484 57.9307 33.4337 59.1298 28.0199 59.1298C22.606 59.1298 17.7914 57.9307 13.576 55.5326C9.36062 53.1344 6.04411 49.7245 3.62647 45.3029C1.20882 40.8813 0 35.6353 0 29.5649C0 23.4945 1.20882 18.2486 3.62647 13.8269C6.04411 9.40532 9.36062 5.99542 13.576 3.59725C17.7914 1.19908 22.606 0 28.0199 0C33.4337 0 38.2484 1.19908 42.4637 3.59725C46.6791 5.99542 49.9956 9.40532 52.4133 13.8269C54.8309 18.2486 56.0397 23.4945 56.0397 29.5649ZM48.6008 29.5649C48.6008 24.5812 47.6813 19.5831 45.8422 16.1544C44.0238 12.7258 41.5545 10.9229 38.4343 9.16175C35.3348 7.40059 28.652 6.39924 28.0199 6.39924C27.3878 6.39924 27.3878 6.39924 28.0199 6.39924C28.0199 11.2093 28.0199 12.7775 28.0199 16.1544C28.0199 19.5314 28.0199 24.5812 28.0199 29.5649C28.0199 34.5486 28.0199 38.3808 28.0199 42.1834C28.0199 45.9859 28.0199 50.3618 28.0199 51.5388C28.0199 63.1163 24.1764 52.6098 28.0199 52.6098C31.8633 52.6098 34.4675 53.1719 38.0584 51.145C41.1786 49.3839 44.0238 45.612 45.8422 42.1834C47.6813 38.7547 48.6008 34.5486 48.6008 29.5649Z" fill="#004AAD"/>
<path d="M45.4948 31.1581C46.8785 31.1581 48 32.2796 48 33.6633V34.618H47.9927C47.9456 35.6971 47.6497 37.0506 46.4379 38.1563C45.1142 39.3641 42.8292 40.1538 39 40.1538C35.1708 40.1538 32.8859 39.3641 31.5621 38.1563C30.3503 37.0506 30.0544 35.6971 30.0074 34.618H30V33.6633C30 32.2796 31.1216 31.1581 32.5052 31.1581H45.4948Z" fill="black"/>
<path d="M34.1538 19.3846C33.0068 19.3846 32.0769 20.3145 32.0769 21.4615V27C32.0769 28.1471 33.0068 29.0769 34.1538 29.0769H43.8461C44.9932 29.0769 45.9231 28.1471 45.9231 27V21.4615C45.9231 20.3145 44.9932 19.3846 43.8461 19.3846H39.6923C39.6923 19.3846 39.6923 19.1196 39.6923 18.6923C39.6923 18.265 39.3823 18 39 18C38.6176 18 38.3077 18.3191 38.3077 18.6923V19.3846H34.1538ZM34.8461 24.2308C34.8461 23.4661 35.4661 22.8462 36.2308 22.8462C36.9954 22.8462 37.6154 23.4661 37.6154 24.2308C37.6154 24.9955 36.9954 25.6154 36.2308 25.6154C35.4661 25.6154 34.8461 24.9955 34.8461 24.2308ZM40.3846 24.2308C40.3846 23.4661 41.0045 22.8462 41.7692 22.8462C42.5339 22.8462 43.1538 23.4661 43.1538 24.2308C43.1538 24.9955 42.5339 25.6154 41.7692 25.6154C41.0045 25.6154 40.3846 24.9955 40.3846 24.2308Z" fill="black"/>
</svg>
